<?xml version="1.0" standalone="yes"?>
<svg xmlns="http://www.w3.org/2000/svg" width="150" height="150">
<path style="fill:#877dd3; stroke:none;" d="M0 0L0 150L150 150L150 0L0 0z"/>
<path style="fill:#b0a9e1; stroke:none;" d="M75 2L76 3L75 2M73 3L74 4L73 3z"/>
<path style="fill:#ffffff; stroke:none;" d="M22 73L22 74C11.9857 79.6017 14 87.7284 14 98C14 101.496 13.1176 106.513 15.6034 109.366C24.5649 119.651 44.2416 126.429 56 133.397C63.6723 137.943 74.2304 147.524 82.6821 140.045C88.6394 134.773 84.2043 117.543 86 110C92.0044 113.961 102.745 122.948 110 123.307C115.241 123.567 132.298 113.618 134.397 108.787C137.29 102.126 135 90.2198 135 83L135 51C135 47.0903 136.16 40.8349 133.972 37.3897C131.525 33.5352 124.827 31.0964 121 28.8002C118.074 27.0446 114.514 24.053 111 23.7739C103.833 23.2048 92.0923 33.4072 86 37C84.1715 29.3196 88.6495 12.3819 82.6821 6.90509C74.4591 -0.641937 63.4878 9.34003 56 13.7994C44.1752 20.8416 24.6401 27.4142 15.6034 37.7855C13.1308 40.6233 14 45.5204 14 49C14 59.2025 11.9077 67.5805 22 73z"/>
<path style="fill:#b0a9e1; stroke:none;" d="M77 3L78 4L77 3M71 4L72 5L71 4z"/>
<path style="fill:#e1dff5; stroke:none;" d="M72 4L73 5L72 4M70 5L71 6L70 5z"/>
<path style="fill:#cbc7ec; stroke:none;" d="M80 5L81 6L80 5M68 6L69 7L68 6M82 6L83 7L82 6z"/>
<path style="fill:#b0a9e1; stroke:none;" d="M66 7L67 8L66 7M84 7L85 8L84 7M64 8L65 9L64 8z"/>
<path style="fill:#e1dff5; stroke:none;" d="M65 8L66 9L65 8z"/>
<path style="fill:#cbc7ec; stroke:none;" d="M63 9L64 10L63 9M61 10L62 11L61 10z"/>
<path style="fill:#b0a9e1; stroke:none;" d="M59 11L60 12L59 11z"/>
<path style="fill:#e1dff5; stroke:none;" d="M58 12L59 13L58 12z"/>
<path style="fill:#cbc7ec; stroke:none;" d="M56 13L57 14L56 13z"/>
<path style="fill:#b0a9e1; stroke:none;" d="M54 14L55 15L54 14M52 15L53 16L52 15z"/>
<path style="fill:#e1dff5; stroke:none;" d="M53 15L54 16L53 15M51 16L52 17L51 16z"/>
<path style="fill:#cbc7ec; stroke:none;" d="M49 17L50 18L49 17z"/>
<path style="fill:#b0a9e1; stroke:none;" d="M47 18L48 19L47 18M45 19L46 20L45 19z"/>
<path style="fill:#e1dff5; stroke:none;" d="M46 19L47 20L46 19z"/>
<path style="fill:#cbc7ec; stroke:none;" d="M44 20L45 21L44 20M42 21L43 22L42 21z"/>
<path style="fill:#b0a9e1; stroke:none;" d="M40 22L41 23L40 22M110 22L111 23L110 22z"/>
<path style="fill:#e1dff5; stroke:none;" d="M39 23L40 24L39 23z"/>
<path style="fill:#b0a9e1; stroke:none;" d="M108 23L109 24L108 23z"/>
<path style="fill:#cbc7ec; stroke:none;" d="M37 24L38 25L37 24z"/>
<path style="fill:#b0a9e1; stroke:none;" d="M106 24L107 25L106 24z"/>
<path style="fill:#e1dff5; stroke:none;" d="M107 24L108 25L107 24z"/>
<path style="fill:#cbc7ec; stroke:none;" d="M113 24L114 25L113 24z"/>
<path style="fill:#b0a9e1; stroke:none;" d="M35 25L36 26L35 25z"/>
<path style="fill:#cbc7ec; stroke:none;" d="M105 25L106 26L105 25z"/>
<path style="fill:#b0a9e1; stroke:none;" d="M115 25L116 26L115 25M33 26L34 27L33 26z"/>
<path style="fill:#e1dff5; stroke:none;" d="M34 26L35 27L34 26z"/>
<path style="fill:#b0a9e1; stroke:none;" d="M103 26L104 27L103 26M117 26L118 27L117 26z"/>
<path style="fill:#e1dff5; stroke:none;" d="M32 27L33 28L32 27z"/>
<path style="fill:#b0a9e1; stroke:none;" d="M101 27L102 28L101 27z"/>
<path style="fill:#e1dff5; stroke:none;" d="M102 27L103 28L102 27z"/>
<path style="fill:#cbc7ec; stroke:none;" d="M118 27L119 28L118 27M30 28L31 29L30 28M100 28L101 29L100 28M120 28L121 29L120 28z"/>
<path style="fill:#b0a9e1; stroke:none;" d="M28 29L29 30L28 29M98 29L99 30L98 29M122 29L123 30L122 29M26 30L27 31L26 30z"/>
<path style="fill:#e1dff5; stroke:none;" d="M27 30L28 31L27 30z"/>
<path style="fill:#b0a9e1; stroke:none;" d="M96 30L97 31L96 30z"/>
<path style="fill:#e1dff5; stroke:none;" d="M97 30L98 31L97 30z"/>
<path style="fill:#cbc7ec; stroke:none;" d="M123 30L124 31L123 30M25 31L26 32L25 31M95 31L96 32L95 31M125 31L126 32L125 31M23 32L24 33L23 32z"/>
<path style="fill:#b0a9e1; stroke:none;" d="M93 32L94 33L93 32M127 32L128 33L127 32M21 33L22 34L21 33M91 33L92 34L91 33z"/>
<path style="fill:#e1dff5; stroke:none;" d="M92 33L93 34L92 33M128 33L129 34L128 33M20 34L21 35L20 34z"/>
<path style="fill:#cbc7ec; stroke:none;" d="M90 34L91 35L90 34M130 34L131 35L130 34M18 35L19 36L18 35z"/>
<path style="fill:#b0a9e1; stroke:none;" d="M85 35L86 36L85 35z"/>
<path style="fill:#cbc7ec; stroke:none;" d="M88 35L89 36L88 35z"/>
<path style="fill:#b0a9e1; stroke:none;" d="M132 35L133 36L132 35M16 36L17 37L16 36z"/>
<path style="fill:#cbc7ec; stroke:none;" d="M86 36L87 37L86 36z"/>
<path style="fill:#b0a9e1; stroke:none;" d="M14 37L15 38L14 37z"/>
<path style="fill:#e1dff5; stroke:none;" d="M15 37L16 38L15 37z"/>
<path style="fill:#cbc7ec; stroke:none;" d="M135 37L136 38L135 37M13 38L14 39L13 38z"/>
<path style="fill:#e1dff5; stroke:none;" d="M83 38L84 39L83 38M135 38L135 109L136 109L136 60L135 38M13 39L13 68L14 68L13 39z"/>
<path style="fill:#cbc7ec; stroke:none;" d="M81 39L82 40L81 39z"/>
<path style="fill:#877dd3; stroke:none;" d="M25 72L25 75C44.2607 84.0032 64.0858 103.967 85 108L85 63L84 39L25 72z"/>
<path style="fill:#b0a9e1; stroke:none;" d="M84 39L85 40L84 39z"/>
<path style="fill:#e1dff5; stroke:none;" d="M79 40L80 41L79 40z"/>
<path style="fill:#b0a9e1; stroke:none;" d="M80 40L81 41L80 40M78 41L79 42L78 41z"/>
<path style="fill:#cbc7ec; stroke:none;" d="M76 42L77 43L76 42M74 43L75 44L74 43z"/>
<path style="fill:#e1dff5; stroke:none;" d="M72 44L73 45L72 44z"/>
<path style="fill:#b0a9e1; stroke:none;" d="M73 44L74 45L73 44M71 45L72 46L71 45z"/>
<path style="fill:#cbc7ec; stroke:none;" d="M69 46L70 47L69 46z"/>
<path style="fill:#e1dff5; stroke:none;" d="M67 47L68 48L67 47z"/>
<path style="fill:#b0a9e1; stroke:none;" d="M66 48L67 49L66 48M64 49L65 50L64 49z"/>
<path style="fill:#cbc7ec; stroke:none;" d="M62 50L63 51L62 50z"/>
<path style="fill:#e1dff5; stroke:none;" d="M60 51L61 52L60 51z"/>
<path style="fill:#b0a9e1; stroke:none;" d="M61 51L62 52L61 51M59 52L60 53L59 52z"/>
<path style="fill:#cbc7ec; stroke:none;" d="M57 53L58 54L57 53M55 54L56 55L55 54z"/>
<path style="fill:#e1dff5; stroke:none;" d="M53 55L54 56L53 55z"/>
<path style="fill:#b0a9e1; stroke:none;" d="M54 55L55 56L54 55M52 56L53 57L52 56z"/>
<path style="fill:#cbc7ec; stroke:none;" d="M50 57L51 58L50 57z"/>
<path style="fill:#e1dff5; stroke:none;" d="M48 58L49 59L48 58z"/>
<path style="fill:#b0a9e1; stroke:none;" d="M47 59L48 60L47 59M45 60L46 61L45 60z"/>
<path style="fill:#cbc7ec; stroke:none;" d="M43 61L44 62L43 61z"/>
<path style="fill:#e1dff5; stroke:none;" d="M41 62L42 63L41 62z"/>
<path style="fill:#b0a9e1; stroke:none;" d="M42 62L43 63L42 62M40 63L41 64L40 63z"/>
<path style="fill:#cbc7ec; stroke:none;" d="M38 64L39 65L38 64M36 65L37 66L36 65z"/>
<path style="fill:#e1dff5; stroke:none;" d="M34 66L35 67L34 66z"/>
<path style="fill:#b0a9e1; stroke:none;" d="M35 66L36 67L35 66M33 67L34 68L33 67z"/>
<path style="fill:#cbc7ec; stroke:none;" d="M14 68L15 69L14 68M31 68L32 69L31 68z"/>
<path style="fill:#b0a9e1; stroke:none;" d="M15 69L16 70L15 69z"/>
<path style="fill:#e1dff5; stroke:none;" d="M29 69L30 70L29 69z"/>
<path style="fill:#b0a9e1; stroke:none;" d="M17 70L18 71L17 70M28 70L29 71L28 70z"/>
<path style="fill:#cbc7ec; stroke:none;" d="M19 71L20 72L19 71z"/>
<path style="fill:#b0a9e1; stroke:none;" d="M26 71L27 72L26 71z"/>
<path style="fill:#cbc7ec; stroke:none;" d="M21 73L22 74L21 73M24 73L25 74L24 73z"/>
<path style="fill:#e1dff5; stroke:none;" d="M24 74L25 75L24 74z"/>
<path style="fill:#cbc7ec; stroke:none;" d="M19 75L20 76L19 75z"/>
<path style="fill:#b0a9e1; stroke:none;" d="M26 75L27 76L26 75M17 76L18 77L17 76M28 76L29 77L28 76M15 77L16 78L15 77z"/>
<path style="fill:#e1dff5; stroke:none;" d="M16 77L17 78L16 77z"/>
<path style="fill:#cbc7ec; stroke:none;" d="M29 77L30 78L29 77M14 78L15 79L14 78M31 78L32 79L31 78z"/>
<path style="fill:#e1dff5; stroke:none;" d="M13 79L13 108L14 108L13 79z"/>
<path style="fill:#b0a9e1; stroke:none;" d="M33 79L34 80L33 79z"/>
<path style="fill:#e1dff5; stroke:none;" d="M34 80L35 81L34 80z"/>
<path style="fill:#cbc7ec; stroke:none;" d="M36 81L37 82L36 81z"/>
<path style="fill:#b0a9e1; stroke:none;" d="M38 82L39 83L38 82M40 83L41 84L40 83z"/>
<path style="fill:#cbc7ec; stroke:none;" d="M41 84L42 85L41 84M43 85L44 86L43 85z"/>
<path style="fill:#b0a9e1; stroke:none;" d="M45 86L46 87L45 86z"/>
<path style="fill:#cbc7ec; stroke:none;" d="M48 88L49 89L48 88M50 89L51 90L50 89z"/>
<path style="fill:#b0a9e1; stroke:none;" d="M52 90L53 91L52 90z"/>
<path style="fill:#e1dff5; stroke:none;" d="M53 91L54 92L53 91z"/>
<path style="fill:#cbc7ec; stroke:none;" d="M55 92L56 93L55 92z"/>
<path style="fill:#b0a9e1; stroke:none;" d="M57 93L58 94L57 93M59 94L60 95L59 94z"/>
<path style="fill:#cbc7ec; stroke:none;" d="M60 95L61 96L60 95M62 96L63 97L62 96z"/>
<path style="fill:#b0a9e1; stroke:none;" d="M64 97L65 98L64 97z"/>
<path style="fill:#cbc7ec; stroke:none;" d="M67 99L68 100L67 99M69 100L70 101L69 100z"/>
<path style="fill:#b0a9e1; stroke:none;" d="M71 101L72 102L71 101z"/>
<path style="fill:#e1dff5; stroke:none;" d="M72 102L73 103L72 102z"/>
<path style="fill:#cbc7ec; stroke:none;" d="M74 103L75 104L74 103z"/>
<path style="fill:#b0a9e1; stroke:none;" d="M76 104L77 105L76 104M78 105L79 106L78 105z"/>
<path style="fill:#cbc7ec; stroke:none;" d="M79 106L80 107L79 106M81 107L82 108L81 107M13 108L14 109L13 108z"/>
<path style="fill:#e1dff5; stroke:none;" d="M83 108L84 109L83 108z"/>
<path style="fill:#b0a9e1; stroke:none;" d="M14 109L15 110L14 109z"/>
<path style="fill:#cbc7ec; stroke:none;" d="M135 109L136 110L135 109z"/>
<path style="fill:#b0a9e1; stroke:none;" d="M16 110L17 111L16 110z"/>
<path style="fill:#e1dff5; stroke:none;" d="M86 110L87 111L86 110z"/>
<path style="fill:#b0a9e1; stroke:none;" d="M134 110L135 111L134 110z"/>
<path style="fill:#cbc7ec; stroke:none;" d="M18 111L19 112L18 111M88 111L89 112L88 111M132 111L133 112L132 111z"/>
<path style="fill:#e1dff5; stroke:none;" d="M20 112L21 113L20 112M130 112L131 113L130 112z"/>
<path style="fill:#b0a9e1; stroke:none;" d="M21 113L22 114L21 113M91 113L92 114L91 113z"/>
<path style="fill:#e1dff5; stroke:none;" d="M128 113L129 114L128 113z"/>
<path style="fill:#b0a9e1; stroke:none;" d="M129 113L130 114L129 113z"/>
<path style="fill:#cbc7ec; stroke:none;" d="M23 114L24 115L23 114M93 114L94 115L93 114z"/>
<path style="fill:#b0a9e1; stroke:none;" d="M127 114L128 115L127 114z"/>
<path style="fill:#cbc7ec; stroke:none;" d="M25 115L26 116L25 115z"/>
<path style="fill:#e1dff5; stroke:none;" d="M95 115L96 116L95 115z"/>
<path style="fill:#cbc7ec; stroke:none;" d="M125 115L126 116L125 115z"/>
<path style="fill:#b0a9e1; stroke:none;" d="M26 116L27 117L26 116M96 116L97 117L96 116z"/>
<path style="fill:#e1dff5; stroke:none;" d="M123 116L124 117L123 116z"/>
<path style="fill:#b0a9e1; stroke:none;" d="M124 116L125 117L124 116M28 117L29 118L28 117z"/>
<path style="fill:#cbc7ec; stroke:none;" d="M98 117L99 118L98 117z"/>
<path style="fill:#b0a9e1; stroke:none;" d="M122 117L123 118L122 117z"/>
<path style="fill:#cbc7ec; stroke:none;" d="M30 118L31 119L30 118M100 118L101 119L100 118M120 118L121 119L120 118M32 119L33 120L32 119z"/>
<path style="fill:#b0a9e1; stroke:none;" d="M101 119L102 120L101 119z"/>
<path style="fill:#e1dff5; stroke:none;" d="M118 119L119 120L118 119z"/>
<path style="fill:#b0a9e1; stroke:none;" d="M119 119L120 120L119 119M33 120L34 121L33 120z"/>
<path style="fill:#cbc7ec; stroke:none;" d="M103 120L104 121L103 120z"/>
<path style="fill:#b0a9e1; stroke:none;" d="M117 120L118 121L117 120z"/>
<path style="fill:#cbc7ec; stroke:none;" d="M35 121L36 122L35 121M105 121L106 122L105 121M115 121L116 122L115 121M37 122L38 123L37 122z"/>
<path style="fill:#b0a9e1; stroke:none;" d="M106 122L107 123L106 122z"/>
<path style="fill:#e1dff5; stroke:none;" d="M113 122L114 123L113 122M39 123L40 124L39 123z"/>
<path style="fill:#b0a9e1; stroke:none;" d="M108 123L109 124L108 123M112 123L113 124L112 123M40 124L41 125L40 124M110 124L111 125L110 124z"/>
<path style="fill:#cbc7ec; stroke:none;" d="M42 125L43 126L42 125M44 126L45 127L44 126z"/>
<path style="fill:#b0a9e1; stroke:none;" d="M45 127L46 128L45 127M47 128L48 129L47 128z"/>
<path style="fill:#cbc7ec; stroke:none;" d="M49 129L50 130L49 129z"/>
<path style="fill:#e1dff5; stroke:none;" d="M51 130L52 131L51 130z"/>
<path style="fill:#b0a9e1; stroke:none;" d="M52 131L53 132L52 131z"/>
<path style="fill:#cbc7ec; stroke:none;" d="M54 132L55 133L54 132M56 133L57 134L56 133z"/>
<path style="fill:#b0a9e1; stroke:none;" d="M59 135L60 136L59 135z"/>
<path style="fill:#cbc7ec; stroke:none;" d="M61 136L62 137L61 136M63 137L64 138L63 137z"/>
<path style="fill:#b0a9e1; stroke:none;" d="M64 138L65 139L64 138M66 139L67 140L66 139M84 139L85 140L84 139z"/>
<path style="fill:#cbc7ec; stroke:none;" d="M68 140L69 141L68 140M82 140L83 141L82 140z"/>
<path style="fill:#e1dff5; stroke:none;" d="M70 141L71 142L70 141M80 141L81 142L80 141z"/>
<path style="fill:#b0a9e1; stroke:none;" d="M71 142L72 143L71 142z"/>
<path style="fill:#e1dff5; stroke:none;" d="M78 142L79 143L78 142z"/>
<path style="fill:#b0a9e1; stroke:none;" d="M79 142L80 143L79 142z"/>
<path style="fill:#cbc7ec; stroke:none;" d="M73 143L74 144L73 143z"/>
<path style="fill:#b0a9e1; stroke:none;" d="M77 143L78 144L77 143M75 144L76 145L75 144z"/>
</svg>
